<?xml version="1.0" encoding="UTF-8" standalone="no"?>
<!DOCTYPE svg PUBLIC "-//W3C//DTD SVG 1.1//EN"
 "http://www.w3.org/Graphics/SVG/1.1/DTD/svg11.dtd">
<!-- Generated by graphviz version 2.40.1 (20161225.0304)
 -->
<!-- Title: snakemake_dag Pages: 1 -->
<svg width="242pt" height="692pt"
 viewBox="0.00 0.00 242.00 692.00" xmlns="http://www.w3.org/2000/svg" xmlns:xlink="http://www.w3.org/1999/xlink">
<g id="graph0" class="graph" transform="scale(1 1) rotate(0) translate(4 688)">
<title>snakemake_dag</title>
<polygon fill="#ffffff" stroke="transparent" points="-4,4 -4,-688 238,-688 238,4 -4,4"/>
<!-- 0 -->
<g id="node1" class="node">
<title>0</title>
<path fill="none" stroke="#d85656" stroke-width="2" d="M136.5,-36C136.5,-36 82.5,-36 82.5,-36 76.5,-36 70.5,-30 70.5,-24 70.5,-24 70.5,-12 70.5,-12 70.5,-6 76.5,0 82.5,0 82.5,0 136.5,0 136.5,0 142.5,0 148.5,-6 148.5,-12 148.5,-12 148.5,-24 148.5,-24 148.5,-30 142.5,-36 136.5,-36"/>
<text text-anchor="middle" x="109.5" y="-15.5" font-family="sans" font-size="10.00" fill="#000000">target_default</text>
</g>
<!-- 1 -->
<g id="node2" class="node">
<title>1</title>
<path fill="none" stroke="#56c9d8" stroke-width="2" d="M130,-108C130,-108 89,-108 89,-108 83,-108 77,-102 77,-96 77,-96 77,-84 77,-84 77,-78 83,-72 89,-72 89,-72 130,-72 130,-72 136,-72 142,-78 142,-84 142,-84 142,-96 142,-96 142,-102 136,-108 130,-108"/>
<text text-anchor="middle" x="109.5" y="-87.5" font-family="sans" font-size="10.00" fill="#000000">mafft_align</text>
</g>
<!-- 1&#45;&gt;0 -->
<g id="edge1" class="edge">
<title>1&#45;&gt;0</title>
<path fill="none" stroke="#c0c0c0" stroke-width="2" d="M109.5,-71.8314C109.5,-64.131 109.5,-54.9743 109.5,-46.4166"/>
<polygon fill="#c0c0c0" stroke="#c0c0c0" stroke-width="2" points="113.0001,-46.4132 109.5,-36.4133 106.0001,-46.4133 113.0001,-46.4132"/>
</g>
<!-- 2 -->
<g id="node3" class="node">
<title>2</title>
<path fill="none" stroke="#56a9d8" stroke-width="2" d="M141,-180C141,-180 78,-180 78,-180 72,-180 66,-174 66,-168 66,-168 66,-156 66,-156 66,-150 72,-144 78,-144 78,-144 141,-144 141,-144 147,-144 153,-150 153,-156 153,-156 153,-168 153,-168 153,-174 147,-180 141,-180"/>
<text text-anchor="middle" x="109.5" y="-159.5" font-family="sans" font-size="10.00" fill="#000000">fasta_condense</text>
</g>
<!-- 2&#45;&gt;1 -->
<g id="edge2" class="edge">
<title>2&#45;&gt;1</title>
<path fill="none" stroke="#c0c0c0" stroke-width="2" d="M109.5,-143.8314C109.5,-136.131 109.5,-126.9743 109.5,-118.4166"/>
<polygon fill="#c0c0c0" stroke="#c0c0c0" stroke-width="2" points="113.0001,-118.4132 109.5,-108.4133 106.0001,-118.4133 113.0001,-118.4132"/>
</g>
<!-- 3 -->
<g id="node4" class="node">
<title>3</title>
<path fill="none" stroke="#d8ac56" stroke-width="2" d="M144,-252C144,-252 75,-252 75,-252 69,-252 63,-246 63,-240 63,-240 63,-228 63,-228 63,-222 69,-216 75,-216 75,-216 144,-216 144,-216 150,-216 156,-222 156,-228 156,-228 156,-240 156,-240 156,-246 150,-252 144,-252"/>
<text text-anchor="middle" x="109.5" y="-231.5" font-family="sans" font-size="10.00" fill="#000000">helper_condense</text>
</g>
<!-- 3&#45;&gt;2 -->
<g id="edge3" class="edge">
<title>3&#45;&gt;2</title>
<path fill="none" stroke="#c0c0c0" stroke-width="2" d="M109.5,-215.8314C109.5,-208.131 109.5,-198.9743 109.5,-190.4166"/>
<polygon fill="#c0c0c0" stroke="#c0c0c0" stroke-width="2" points="113.0001,-190.4132 109.5,-180.4133 106.0001,-190.4133 113.0001,-190.4132"/>
</g>
<!-- 4 -->
<g id="node5" class="node">
<title>4</title>
<path fill="none" stroke="#8fd856" stroke-width="2" d="M126,-324C126,-324 93,-324 93,-324 87,-324 81,-318 81,-312 81,-312 81,-300 81,-300 81,-294 87,-288 93,-288 93,-288 126,-288 126,-288 132,-288 138,-294 138,-300 138,-300 138,-312 138,-312 138,-318 132,-324 126,-324"/>
<text text-anchor="middle" x="109.5" y="-303.5" font-family="sans" font-size="10.00" fill="#000000">blasttogff</text>
</g>
<!-- 4&#45;&gt;3 -->
<g id="edge4" class="edge">
<title>4&#45;&gt;3</title>
<path fill="none" stroke="#c0c0c0" stroke-width="2" d="M109.5,-287.8314C109.5,-280.131 109.5,-270.9743 109.5,-262.4166"/>
<polygon fill="#c0c0c0" stroke="#c0c0c0" stroke-width="2" points="113.0001,-262.4132 109.5,-252.4133 106.0001,-262.4133 113.0001,-262.4132"/>
</g>
<!-- 5 -->
<g id="node6" class="node">
<title>5</title>
<path fill="none" stroke="#d87556" stroke-width="2" d="M142,-468C142,-468 77,-468 77,-468 71,-468 65,-462 65,-456 65,-456 65,-444 65,-444 65,-438 71,-432 77,-432 77,-432 142,-432 142,-432 148,-432 154,-438 154,-444 154,-444 154,-456 154,-456 154,-462 148,-468 142,-468"/>
<text text-anchor="middle" x="109.5" y="-447.5" font-family="sans" font-size="10.00" fill="#000000">blast_mkblastdb</text>
</g>
<!-- 5&#45;&gt;4 -->
<g id="edge5" class="edge">
<title>5&#45;&gt;4</title>
<path fill="none" stroke="#c0c0c0" stroke-width="2" d="M104.3809,-431.6727C101.748,-421.2978 98.8204,-408.0284 97.5,-396 95.7541,-380.0955 95.7541,-375.9045 97.5,-360 98.4284,-351.5425 100.1514,-342.4715 102.0078,-334.2246"/>
<polygon fill="#c0c0c0" stroke="#c0c0c0" stroke-width="2" points="105.4527,-334.8678 104.3809,-324.3273 98.6456,-333.2356 105.4527,-334.8678"/>
</g>
<!-- 8 -->
<g id="node9" class="node">
<title>8</title>
<path fill="none" stroke="#d88d56" stroke-width="2" d="M167,-396C167,-396 118,-396 118,-396 112,-396 106,-390 106,-384 106,-384 106,-372 106,-372 106,-366 112,-360 118,-360 118,-360 167,-360 167,-360 173,-360 179,-366 179,-372 179,-372 179,-384 179,-384 179,-390 173,-396 167,-396"/>
<text text-anchor="middle" x="142.5" y="-375.5" font-family="sans" font-size="10.00" fill="#000000">blast_search</text>
</g>
<!-- 5&#45;&gt;8 -->
<g id="edge10" class="edge">
<title>5&#45;&gt;8</title>
<path fill="none" stroke="#c0c0c0" stroke-width="2" d="M117.8273,-431.8314C121.473,-423.8771 125.8309,-414.369 129.8627,-405.5723"/>
<polygon fill="#c0c0c0" stroke="#c0c0c0" stroke-width="2" points="133.0757,-406.9622 134.0606,-396.4133 126.7123,-404.0456 133.0757,-406.9622"/>
</g>
<!-- 6 -->
<g id="node7" class="node">
<title>6</title>
<path fill="none" stroke="#56d8c9" stroke-width="2" d="M146,-540C146,-540 73,-540 73,-540 67,-540 61,-534 61,-528 61,-528 61,-516 61,-516 61,-510 67,-504 73,-504 73,-504 146,-504 146,-504 152,-504 158,-510 158,-516 158,-516 158,-528 158,-528 158,-534 152,-540 146,-540"/>
<text text-anchor="middle" x="109.5" y="-519.5" font-family="sans" font-size="10.00" fill="#000000">spades_assembly</text>
</g>
<!-- 6&#45;&gt;5 -->
<g id="edge7" class="edge">
<title>6&#45;&gt;5</title>
<path fill="none" stroke="#c0c0c0" stroke-width="2" d="M109.5,-503.8314C109.5,-496.131 109.5,-486.9743 109.5,-478.4166"/>
<polygon fill="#c0c0c0" stroke="#c0c0c0" stroke-width="2" points="113.0001,-478.4132 109.5,-468.4133 106.0001,-478.4133 113.0001,-478.4132"/>
</g>
<!-- 7 -->
<g id="node8" class="node">
<title>7</title>
<path fill="none" stroke="#c6d856" stroke-width="2" d="M81,-612C81,-612 12,-612 12,-612 6,-612 0,-606 0,-600 0,-600 0,-588 0,-588 0,-582 6,-576 12,-576 12,-576 81,-576 81,-576 87,-576 93,-582 93,-588 93,-588 93,-600 93,-600 93,-606 87,-612 81,-612"/>
<text text-anchor="middle" x="46.5" y="-591.5" font-family="sans" font-size="10.00" fill="#000000">trimmomatic_trim</text>
</g>
<!-- 7&#45;&gt;6 -->
<g id="edge9" class="edge">
<title>7&#45;&gt;6</title>
<path fill="none" stroke="#c0c0c0" stroke-width="2" d="M62.3976,-575.8314C69.7278,-567.454 78.566,-557.3531 86.5969,-548.1749"/>
<polygon fill="#c0c0c0" stroke="#c0c0c0" stroke-width="2" points="89.4373,-550.2438 93.3884,-540.4133 84.1693,-545.6343 89.4373,-550.2438"/>
</g>
<!-- 8&#45;&gt;4 -->
<g id="edge6" class="edge">
<title>8&#45;&gt;4</title>
<path fill="none" stroke="#c0c0c0" stroke-width="2" d="M134.1727,-359.8314C130.527,-351.8771 126.1691,-342.369 122.1373,-333.5723"/>
<polygon fill="#c0c0c0" stroke="#c0c0c0" stroke-width="2" points="125.2877,-332.0456 117.9394,-324.4133 118.9243,-334.9622 125.2877,-332.0456"/>
</g>
<!-- 9 -->
<g id="node10" class="node">
<title>9</title>
<path fill="none" stroke="#d8cb56" stroke-width="2" d="M222,-612C222,-612 123,-612 123,-612 117,-612 111,-606 111,-600 111,-600 111,-588 111,-588 111,-582 117,-576 123,-576 123,-576 222,-576 222,-576 228,-576 234,-582 234,-588 234,-588 234,-600 234,-600 234,-606 228,-612 222,-612"/>
<text text-anchor="middle" x="172.5" y="-591.5" font-family="sans" font-size="10.00" fill="#000000">trimmomatic_trim_lanes</text>
</g>
<!-- 9&#45;&gt;6 -->
<g id="edge8" class="edge">
<title>9&#45;&gt;6</title>
<path fill="none" stroke="#c0c0c0" stroke-width="2" d="M156.6024,-575.8314C149.2722,-567.454 140.434,-557.3531 132.4031,-548.1749"/>
<polygon fill="#c0c0c0" stroke="#c0c0c0" stroke-width="2" points="134.8307,-545.6343 125.6116,-540.4133 129.5627,-550.2438 134.8307,-545.6343"/>
</g>
<!-- 10 -->
<g id="node11" class="node">
<title>10</title>
<path fill="none" stroke="#5673d8" stroke-width="2" d="M194.5,-684C194.5,-684 150.5,-684 150.5,-684 144.5,-684 138.5,-678 138.5,-672 138.5,-672 138.5,-660 138.5,-660 138.5,-654 144.5,-648 150.5,-648 150.5,-648 194.5,-648 194.5,-648 200.5,-648 206.5,-654 206.5,-660 206.5,-660 206.5,-672 206.5,-672 206.5,-678 200.5,-684 194.5,-684"/>
<text text-anchor="middle" x="172.5" y="-663.5" font-family="sans" font-size="10.00" fill="#000000">file_append</text>
</g>
<!-- 10&#45;&gt;9 -->
<g id="edge11" class="edge">
<title>10&#45;&gt;9</title>
<path fill="none" stroke="#c0c0c0" stroke-width="2" d="M172.5,-647.8314C172.5,-640.131 172.5,-630.9743 172.5,-622.4166"/>
<polygon fill="#c0c0c0" stroke="#c0c0c0" stroke-width="2" points="176.0001,-622.4132 172.5,-612.4133 169.0001,-622.4133 176.0001,-622.4132"/>
</g>
</g>
</svg>
