<?xml version="1.0" encoding="UTF-8" standalone="no"?>
<!DOCTYPE svg PUBLIC "-//W3C//DTD SVG 1.1//EN"
 "http://www.w3.org/Graphics/SVG/1.1/DTD/svg11.dtd">
<!-- Generated by graphviz version 2.40.1 (20161225.0304)
 -->
<!-- Title: snakemake_dag Pages: 1 -->
<svg width="351pt" height="692pt"
 viewBox="0.00 0.00 351.00 692.00" xmlns="http://www.w3.org/2000/svg" xmlns:xlink="http://www.w3.org/1999/xlink">
<g id="graph0" class="graph" transform="scale(1 1) rotate(0) translate(4 688)">
<title>snakemake_dag</title>
<polygon fill="#ffffff" stroke="transparent" points="-4,4 -4,-688 347,-688 347,4 -4,4"/>
<!-- 0 -->
<g id="node1" class="node">
<title>0</title>
<path fill="none" stroke="#56a9d8" stroke-width="2" d="M160.5,-36C160.5,-36 106.5,-36 106.5,-36 100.5,-36 94.5,-30 94.5,-24 94.5,-24 94.5,-12 94.5,-12 94.5,-6 100.5,0 106.5,0 106.5,0 160.5,0 160.5,0 166.5,0 172.5,-6 172.5,-12 172.5,-12 172.5,-24 172.5,-24 172.5,-30 166.5,-36 160.5,-36"/>
<text text-anchor="middle" x="133.5" y="-15.5" font-family="sans" font-size="10.00" fill="#000000">target_default</text>
</g>
<!-- 1 -->
<g id="node2" class="node">
<title>1</title>
<path fill="none" stroke="#70d856" stroke-width="2" d="M154,-108C154,-108 113,-108 113,-108 107,-108 101,-102 101,-96 101,-96 101,-84 101,-84 101,-78 107,-72 113,-72 113,-72 154,-72 154,-72 160,-72 166,-78 166,-84 166,-84 166,-96 166,-96 166,-102 160,-108 154,-108"/>
<text text-anchor="middle" x="133.5" y="-87.5" font-family="sans" font-size="10.00" fill="#000000">mafft_align</text>
</g>
<!-- 1&#45;&gt;0 -->
<g id="edge1" class="edge">
<title>1&#45;&gt;0</title>
<path fill="none" stroke="#c0c0c0" stroke-width="2" d="M133.5,-71.8314C133.5,-64.131 133.5,-54.9743 133.5,-46.4166"/>
<polygon fill="#c0c0c0" stroke="#c0c0c0" stroke-width="2" points="137.0001,-46.4132 133.5,-36.4133 130.0001,-46.4133 137.0001,-46.4132"/>
</g>
<!-- 2 -->
<g id="node3" class="node">
<title>2</title>
<path fill="none" stroke="#c6d856" stroke-width="2" d="M165,-180C165,-180 102,-180 102,-180 96,-180 90,-174 90,-168 90,-168 90,-156 90,-156 90,-150 96,-144 102,-144 102,-144 165,-144 165,-144 171,-144 177,-150 177,-156 177,-156 177,-168 177,-168 177,-174 171,-180 165,-180"/>
<text text-anchor="middle" x="133.5" y="-159.5" font-family="sans" font-size="10.00" fill="#000000">fasta_condense</text>
</g>
<!-- 2&#45;&gt;1 -->
<g id="edge2" class="edge">
<title>2&#45;&gt;1</title>
<path fill="none" stroke="#c0c0c0" stroke-width="2" d="M133.5,-143.8314C133.5,-136.131 133.5,-126.9743 133.5,-118.4166"/>
<polygon fill="#c0c0c0" stroke="#c0c0c0" stroke-width="2" points="137.0001,-118.4132 133.5,-108.4133 130.0001,-118.4133 137.0001,-118.4132"/>
</g>
<!-- 3 -->
<g id="node4" class="node">
<title>3</title>
<path fill="none" stroke="#56d8c9" stroke-width="2" d="M168,-252C168,-252 99,-252 99,-252 93,-252 87,-246 87,-240 87,-240 87,-228 87,-228 87,-222 93,-216 99,-216 99,-216 168,-216 168,-216 174,-216 180,-222 180,-228 180,-228 180,-240 180,-240 180,-246 174,-252 168,-252"/>
<text text-anchor="middle" x="133.5" y="-231.5" font-family="sans" font-size="10.00" fill="#000000">helper_condense</text>
</g>
<!-- 3&#45;&gt;2 -->
<g id="edge3" class="edge">
<title>3&#45;&gt;2</title>
<path fill="none" stroke="#c0c0c0" stroke-width="2" d="M133.5,-215.8314C133.5,-208.131 133.5,-198.9743 133.5,-190.4166"/>
<polygon fill="#c0c0c0" stroke="#c0c0c0" stroke-width="2" points="137.0001,-190.4132 133.5,-180.4133 130.0001,-190.4133 137.0001,-190.4132"/>
</g>
<!-- 4 -->
<g id="node5" class="node">
<title>4</title>
<path fill="none" stroke="#5692d8" stroke-width="2" d="M103,-324C103,-324 70,-324 70,-324 64,-324 58,-318 58,-312 58,-312 58,-300 58,-300 58,-294 64,-288 70,-288 70,-288 103,-288 103,-288 109,-288 115,-294 115,-300 115,-300 115,-312 115,-312 115,-318 109,-324 103,-324"/>
<text text-anchor="middle" x="86.5" y="-303.5" font-family="sans" font-size="10.00" fill="#000000">blasttogff</text>
</g>
<!-- 4&#45;&gt;3 -->
<g id="edge4" class="edge">
<title>4&#45;&gt;3</title>
<path fill="none" stroke="#c0c0c0" stroke-width="2" d="M98.3601,-287.8314C103.6629,-279.7079 110.0237,-269.9637 115.8673,-261.0118"/>
<polygon fill="#c0c0c0" stroke="#c0c0c0" stroke-width="2" points="118.9448,-262.7003 121.4802,-252.4133 113.0831,-258.8739 118.9448,-262.7003"/>
</g>
<!-- 5 -->
<g id="node6" class="node">
<title>5</title>
<path fill="none" stroke="#56d892" stroke-width="2" d="M86,-468C86,-468 21,-468 21,-468 15,-468 9,-462 9,-456 9,-456 9,-444 9,-444 9,-438 15,-432 21,-432 21,-432 86,-432 86,-432 92,-432 98,-438 98,-444 98,-444 98,-456 98,-456 98,-462 92,-468 86,-468"/>
<text text-anchor="middle" x="53.5" y="-447.5" font-family="sans" font-size="10.00" fill="#000000">blast_mkblastdb</text>
</g>
<!-- 5&#45;&gt;4 -->
<g id="edge6" class="edge">
<title>5&#45;&gt;4</title>
<path fill="none" stroke="#c0c0c0" stroke-width="2" d="M34.533,-431.9101C17.7652,-413.6214 -2.2089,-384.6202 10.5,-360 18.7387,-344.0396 34.1151,-331.7695 48.8932,-322.9894"/>
<polygon fill="#c0c0c0" stroke="#c0c0c0" stroke-width="2" points="50.8978,-325.88 57.9482,-317.9717 47.5049,-319.7572 50.8978,-325.88"/>
</g>
<!-- 8 -->
<g id="node9" class="node">
<title>8</title>
<path fill="none" stroke="#d8cb56" stroke-width="2" d="M141,-396C141,-396 32,-396 32,-396 26,-396 20,-390 20,-384 20,-384 20,-372 20,-372 20,-366 26,-360 32,-360 32,-360 141,-360 141,-360 147,-360 153,-366 153,-372 153,-372 153,-384 153,-384 153,-390 147,-396 141,-396"/>
<text text-anchor="middle" x="86.5" y="-381" font-family="sans" font-size="10.00" fill="#000000">blast_search</text>
<text text-anchor="middle" x="86.5" y="-370" font-family="sans" font-size="10.00" fill="#000000">query: EXAMPLE&#45;QUERY</text>
</g>
<!-- 5&#45;&gt;8 -->
<g id="edge10" class="edge">
<title>5&#45;&gt;8</title>
<path fill="none" stroke="#c0c0c0" stroke-width="2" d="M61.8273,-431.8314C65.473,-423.8771 69.8309,-414.369 73.8627,-405.5723"/>
<polygon fill="#c0c0c0" stroke="#c0c0c0" stroke-width="2" points="77.0757,-406.9622 78.0606,-396.4133 70.7123,-404.0456 77.0757,-406.9622"/>
</g>
<!-- 6 -->
<g id="node7" class="node">
<title>6</title>
<path fill="none" stroke="#d88d56" stroke-width="2" d="M90,-540C90,-540 17,-540 17,-540 11,-540 5,-534 5,-528 5,-528 5,-516 5,-516 5,-510 11,-504 17,-504 17,-504 90,-504 90,-504 96,-504 102,-510 102,-516 102,-516 102,-528 102,-528 102,-534 96,-540 90,-540"/>
<text text-anchor="middle" x="53.5" y="-519.5" font-family="sans" font-size="10.00" fill="#000000">spades_assembly</text>
</g>
<!-- 6&#45;&gt;5 -->
<g id="edge8" class="edge">
<title>6&#45;&gt;5</title>
<path fill="none" stroke="#c0c0c0" stroke-width="2" d="M53.5,-503.8314C53.5,-496.131 53.5,-486.9743 53.5,-478.4166"/>
<polygon fill="#c0c0c0" stroke="#c0c0c0" stroke-width="2" points="57.0001,-478.4132 53.5,-468.4133 50.0001,-478.4133 57.0001,-478.4132"/>
</g>
<!-- 7 -->
<g id="node8" class="node">
<title>7</title>
<path fill="none" stroke="#56d873" stroke-width="2" d="M95,-612C95,-612 12,-612 12,-612 6,-612 0,-606 0,-600 0,-600 0,-588 0,-588 0,-582 6,-576 12,-576 12,-576 95,-576 95,-576 101,-576 107,-582 107,-588 107,-588 107,-600 107,-600 107,-606 101,-612 95,-612"/>
<text text-anchor="middle" x="53.5" y="-597" font-family="sans" font-size="10.00" fill="#000000">trimmomatic_trim</text>
<text text-anchor="middle" x="53.5" y="-586" font-family="sans" font-size="10.00" fill="#000000">sample: EXAMPLE1</text>
</g>
<!-- 7&#45;&gt;6 -->
<g id="edge9" class="edge">
<title>7&#45;&gt;6</title>
<path fill="none" stroke="#c0c0c0" stroke-width="2" d="M53.5,-575.8314C53.5,-568.131 53.5,-558.9743 53.5,-550.4166"/>
<polygon fill="#c0c0c0" stroke="#c0c0c0" stroke-width="2" points="57.0001,-550.4132 53.5,-540.4133 50.0001,-550.4133 57.0001,-550.4132"/>
</g>
<!-- 8&#45;&gt;4 -->
<g id="edge7" class="edge">
<title>8&#45;&gt;4</title>
<path fill="none" stroke="#c0c0c0" stroke-width="2" d="M86.5,-359.8314C86.5,-352.131 86.5,-342.9743 86.5,-334.4166"/>
<polygon fill="#c0c0c0" stroke="#c0c0c0" stroke-width="2" points="90.0001,-334.4132 86.5,-324.4133 83.0001,-334.4133 90.0001,-334.4132"/>
</g>
<!-- 9 -->
<g id="node10" class="node">
<title>9</title>
<path fill="none" stroke="#5692d8" stroke-width="2" d="M198,-324C198,-324 165,-324 165,-324 159,-324 153,-318 153,-312 153,-312 153,-300 153,-300 153,-294 159,-288 165,-288 165,-288 198,-288 198,-288 204,-288 210,-294 210,-300 210,-300 210,-312 210,-312 210,-318 204,-324 198,-324"/>
<text text-anchor="middle" x="181.5" y="-303.5" font-family="sans" font-size="10.00" fill="#000000">blasttogff</text>
</g>
<!-- 9&#45;&gt;3 -->
<g id="edge5" class="edge">
<title>9&#45;&gt;3</title>
<path fill="none" stroke="#c0c0c0" stroke-width="2" d="M169.3876,-287.8314C163.9719,-279.7079 157.4758,-269.9637 151.5079,-261.0118"/>
<polygon fill="#c0c0c0" stroke="#c0c0c0" stroke-width="2" points="154.2347,-258.7923 145.7755,-252.4133 148.4104,-262.6753 154.2347,-258.7923"/>
</g>
<!-- 10 -->
<g id="node11" class="node">
<title>10</title>
<path fill="none" stroke="#56d892" stroke-width="2" d="M247,-468C247,-468 182,-468 182,-468 176,-468 170,-462 170,-456 170,-456 170,-444 170,-444 170,-438 176,-432 182,-432 182,-432 247,-432 247,-432 253,-432 259,-438 259,-444 259,-444 259,-456 259,-456 259,-462 253,-468 247,-468"/>
<text text-anchor="middle" x="214.5" y="-447.5" font-family="sans" font-size="10.00" fill="#000000">blast_mkblastdb</text>
</g>
<!-- 10&#45;&gt;9 -->
<g id="edge11" class="edge">
<title>10&#45;&gt;9</title>
<path fill="none" stroke="#c0c0c0" stroke-width="2" d="M209.9673,-431.5246C207.4319,-421.1034 204.2398,-407.837 201.5,-396 196.7474,-375.4672 191.5928,-352.2468 187.707,-334.5355"/>
<polygon fill="#c0c0c0" stroke="#c0c0c0" stroke-width="2" points="191.0226,-333.3139 185.4664,-324.2928 184.1843,-334.8098 191.0226,-333.3139"/>
</g>
<!-- 14 -->
<g id="node15" class="node">
<title>14</title>
<path fill="none" stroke="#d8cb56" stroke-width="2" d="M331,-396C331,-396 222,-396 222,-396 216,-396 210,-390 210,-384 210,-384 210,-372 210,-372 210,-366 216,-360 222,-360 222,-360 331,-360 331,-360 337,-360 343,-366 343,-372 343,-372 343,-384 343,-384 343,-390 337,-396 331,-396"/>
<text text-anchor="middle" x="276.5" y="-381" font-family="sans" font-size="10.00" fill="#000000">blast_search</text>
<text text-anchor="middle" x="276.5" y="-370" font-family="sans" font-size="10.00" fill="#000000">query: EXAMPLE&#45;QUERY</text>
</g>
<!-- 10&#45;&gt;14 -->
<g id="edge16" class="edge">
<title>10&#45;&gt;14</title>
<path fill="none" stroke="#c0c0c0" stroke-width="2" d="M230.1452,-431.8314C237.3591,-423.454 246.057,-413.3531 253.9605,-404.1749"/>
<polygon fill="#c0c0c0" stroke="#c0c0c0" stroke-width="2" points="256.7711,-406.2748 260.6441,-396.4133 251.4667,-401.7071 256.7711,-406.2748"/>
</g>
<!-- 11 -->
<g id="node12" class="node">
<title>11</title>
<path fill="none" stroke="#d88d56" stroke-width="2" d="M251,-540C251,-540 178,-540 178,-540 172,-540 166,-534 166,-528 166,-528 166,-516 166,-516 166,-510 172,-504 178,-504 178,-504 251,-504 251,-504 257,-504 263,-510 263,-516 263,-516 263,-528 263,-528 263,-534 257,-540 251,-540"/>
<text text-anchor="middle" x="214.5" y="-519.5" font-family="sans" font-size="10.00" fill="#000000">spades_assembly</text>
</g>
<!-- 11&#45;&gt;10 -->
<g id="edge13" class="edge">
<title>11&#45;&gt;10</title>
<path fill="none" stroke="#c0c0c0" stroke-width="2" d="M214.5,-503.8314C214.5,-496.131 214.5,-486.9743 214.5,-478.4166"/>
<polygon fill="#c0c0c0" stroke="#c0c0c0" stroke-width="2" points="218.0001,-478.4132 214.5,-468.4133 211.0001,-478.4133 218.0001,-478.4132"/>
</g>
<!-- 12 -->
<g id="node13" class="node">
<title>12</title>
<path fill="none" stroke="#afd856" stroke-width="2" d="M264,-612C264,-612 165,-612 165,-612 159,-612 153,-606 153,-600 153,-600 153,-588 153,-588 153,-582 159,-576 165,-576 165,-576 264,-576 264,-576 270,-576 276,-582 276,-588 276,-588 276,-600 276,-600 276,-606 270,-612 264,-612"/>
<text text-anchor="middle" x="214.5" y="-591.5" font-family="sans" font-size="10.00" fill="#000000">trimmomatic_trim_lanes</text>
</g>
<!-- 12&#45;&gt;11 -->
<g id="edge14" class="edge">
<title>12&#45;&gt;11</title>
<path fill="none" stroke="#c0c0c0" stroke-width="2" d="M214.5,-575.8314C214.5,-568.131 214.5,-558.9743 214.5,-550.4166"/>
<polygon fill="#c0c0c0" stroke="#c0c0c0" stroke-width="2" points="218.0001,-550.4132 214.5,-540.4133 211.0001,-550.4133 218.0001,-550.4132"/>
</g>
<!-- 13 -->
<g id="node14" class="node">
<title>13</title>
<path fill="none" stroke="#56c9d8" stroke-width="2" d="M256,-684C256,-684 173,-684 173,-684 167,-684 161,-678 161,-672 161,-672 161,-660 161,-660 161,-654 167,-648 173,-648 173,-648 256,-648 256,-648 262,-648 268,-654 268,-660 268,-660 268,-672 268,-672 268,-678 262,-684 256,-684"/>
<text text-anchor="middle" x="214.5" y="-669" font-family="sans" font-size="10.00" fill="#000000">file_append</text>
<text text-anchor="middle" x="214.5" y="-658" font-family="sans" font-size="10.00" fill="#000000">sample: EXAMPLE2</text>
</g>
<!-- 13&#45;&gt;12 -->
<g id="edge15" class="edge">
<title>13&#45;&gt;12</title>
<path fill="none" stroke="#c0c0c0" stroke-width="2" d="M214.5,-647.8314C214.5,-640.131 214.5,-630.9743 214.5,-622.4166"/>
<polygon fill="#c0c0c0" stroke="#c0c0c0" stroke-width="2" points="218.0001,-622.4132 214.5,-612.4133 211.0001,-622.4133 218.0001,-622.4132"/>
</g>
<!-- 14&#45;&gt;9 -->
<g id="edge12" class="edge">
<title>14&#45;&gt;9</title>
<path fill="none" stroke="#c0c0c0" stroke-width="2" d="M252.5275,-359.8314C240.7139,-350.8779 226.3028,-339.9558 213.5565,-330.2955"/>
<polygon fill="#c0c0c0" stroke="#c0c0c0" stroke-width="2" points="215.5486,-327.4137 205.4648,-324.1628 211.3205,-332.9925 215.5486,-327.4137"/>
</g>
</g>
</svg>
